<svg version="1.2" xmlns="http://www.w3.org/2000/svg" viewBox="0 0 394 394" width="394" height="394"><defs><linearGradient id="P" gradientUnits="userSpaceOnUse"/><linearGradient id="g1" x1="109.5" y1="197" x2="284.5" y2="197" href="#P"><stop stop-color="#33ffff"/><stop offset="1" stop-color="#0064ff"/></linearGradient></defs><style>tspan{white-space:pre}.s0{fill:#ffffff}.s1{fill:url(#g1)}.t2{font-size: 53px;fill: #ffffff;font-family: "Gilroy"}</style><path class="s0" d="m197 0c108.8 0 197 88.2 197 197c0 108.8-88.2 197-197 197c-108.8 0-197-88.2-197-197c0-108.8 88.2-197 197-197z" /><path class="s1" d="m258.2 88.2l-13 71.2l35.7 104.9c5.2 10.3 4.7 22.6-1.3 32.4c-6.3 10.1-17.8 16.1-29.9 15.5l-113.4-0.6c-9.6-2.5-17.9-8.7-22.7-17.5c-6.1-11.4-5.2-25.6 2-36.9l33-99.1l-12.3-70.5zm-137.4-6.5h151v6.5h-151z" /><text style="transform: matrix(0,-0.759,.76,0,212.485,197.042)" ><tspan x="-168.7" y="0" class="t2" dx="0 1 1 1 1 1 1 1 1 1 1" >SECRET LAB
</tspan></text></svg>